<?plantuml 1.2026.2beta3?><svg xmlns="http://www.w3.org/2000/svg" xmlns:xlink="http://www.w3.org/1999/xlink" contentStyleType="text/css" data-diagram-type="DESCRIPTION" height="772px" preserveAspectRatio="none" style="width:1825px;height:772px;background:#FFFFFF;" version="1.1" viewBox="0 0 1825 772" width="1825px" zoomAndPan="magnify"><title>LeaveDemo - Simple Backend Layered Architecture (API + Services + Infrastructure + Observability)</title><defs/><g><g class="title" data-source-line="1"><text fill="#000000" font-family="sans-serif" font-size="14" font-weight="bold" lengthAdjust="spacing" textLength="796.0244" x="507.5417" y="22.9951">LeaveDemo - Simple Backend Layered Architecture (API + Services + Infrastructure + Observability)</text></g><!--cluster Clients--><g class="cluster" data-qualified-name="Clients" data-source-line="8" id="ent0002"><path d="M1411.5,43.2969 L1466.8594,43.2969 A3.75,3.75 0 0 1 1469.3594,45.7969 L1476.3594,65.5938 L1668.5,65.5938 A2.5,2.5 0 0 1 1671,68.0938 L1671,144.3869 A2.5,2.5 0 0 1 1668.5,146.8869 L1411.5,146.8869 A2.5,2.5 0 0 1 1409,144.3869 L1409,45.7969 A2.5,2.5 0 0 1 1411.5,43.2969" fill="none" style="stroke:#000000;stroke-width:1.5;"/><line style="stroke:#000000;stroke-width:1.5;" x1="1409" x2="1476.3594" y1="65.5938" y2="65.5938"/><text fill="#000000" font-family="sans-serif" font-size="14" font-weight="bold" lengthAdjust="spacing" textLength="54.3594" x="1413" y="58.292">Clients</text></g><!--cluster Backend--><g class="cluster" data-qualified-name="Backend" data-source-line="13" id="ent0005"><path d="M8.5,195.8869 L76.7109,195.8869 A3.75,3.75 0 0 1 79.2109,198.3869 L86.2109,218.1838 L1106.5,218.1838 A2.5,2.5 0 0 1 1109,220.6838 L1109,763.0269 A2.5,2.5 0 0 1 1106.5,765.5269 L8.5,765.5269 A2.5,2.5 0 0 1 6,763.0269 L6,198.3869 A2.5,2.5 0 0 1 8.5,195.8869" fill="none" style="stroke:#000000;stroke-width:1.5;"/><line style="stroke:#000000;stroke-width:1.5;" x1="6" x2="86.2109" y1="218.1838" y2="218.1838"/><text fill="#000000" font-family="sans-serif" font-size="14" font-weight="bold" lengthAdjust="spacing" textLength="67.2109" x="10" y="210.882">Backend</text></g><!--cluster Services--><g class="cluster" data-qualified-name="Backend.Services" data-source-line="16" id="ent0007"><path d="M616.5,346.4769 L684.0342,346.4769 A3.75,3.75 0 0 1 686.5342,348.9769 L693.5342,368.7738 L851.5,368.7738 A2.5,2.5 0 0 1 854,371.2738 L854,447.5769 A2.5,2.5 0 0 1 851.5,450.0769 L616.5,450.0769 A2.5,2.5 0 0 1 614,447.5769 L614,348.9769 A2.5,2.5 0 0 1 616.5,346.4769" fill="none" style="stroke:#000000;stroke-width:1.5;"/><line style="stroke:#000000;stroke-width:1.5;" x1="614" x2="693.5342" y1="368.7738" y2="368.7738"/><text fill="#000000" font-family="sans-serif" font-size="14" font-weight="bold" lengthAdjust="spacing" textLength="66.5342" x="618" y="361.472">Services</text></g><!--cluster Infrastructure--><g class="cluster" data-qualified-name="Backend.Infrastructure" data-source-line="20" id="ent0009"><path d="M614.5,521.0469 L726.3721,521.0469 A3.75,3.75 0 0 1 728.8721,523.5469 L735.8721,543.3438 L1082.5,543.3438 A2.5,2.5 0 0 1 1085,545.8438 L1085,638.4369 A2.5,2.5 0 0 1 1082.5,640.9369 L614.5,640.9369 A2.5,2.5 0 0 1 612,638.4369 L612,523.5469 A2.5,2.5 0 0 1 614.5,521.0469" fill="none" style="stroke:#000000;stroke-width:1.5;"/><line style="stroke:#000000;stroke-width:1.5;" x1="612" x2="735.8721" y1="543.3438" y2="543.3438"/><text fill="#000000" font-family="sans-serif" font-size="14" font-weight="bold" lengthAdjust="spacing" textLength="110.8721" x="616" y="536.042">Infrastructure</text></g><!--cluster Observability--><g class="cluster" data-qualified-name="Backend.Observability" data-source-line="25" id="ent0012"><path d="M32.5,529.1869 L138.9648,529.1869 A3.75,3.75 0 0 1 141.4648,531.6869 L148.4648,551.4838 L585.5,551.4838 A2.5,2.5 0 0 1 588,553.9838 L588,630.2869 A2.5,2.5 0 0 1 585.5,632.7869 L32.5,632.7869 A2.5,2.5 0 0 1 30,630.2869 L30,531.6869 A2.5,2.5 0 0 1 32.5,529.1869" fill="none" style="stroke:#000000;stroke-width:1.5;"/><line style="stroke:#000000;stroke-width:1.5;" x1="30" x2="148.4648" y1="551.4838" y2="551.4838"/><text fill="#000000" font-family="sans-serif" font-size="14" font-weight="bold" lengthAdjust="spacing" textLength="105.4648" x="34" y="544.182">Observability</text></g><!--entity ClientDirect--><g class="entity" data-qualified-name="Clients.ClientDirect" data-source-line="9" id="ent0003"><rect fill="#F1F1F1" height="52.5938" rx="2.5" ry="2.5" style="stroke:#181818;stroke-width:0.5;" width="107.2061" x="1547.4" y="78.2969"/><text fill="#000000" font-family="sans-serif" font-size="14" lengthAdjust="spacing" textLength="87.2061" x="1557.4" y="101.292">Client.Direct</text><text fill="#000000" font-family="sans-serif" font-size="14" lengthAdjust="spacing" textLength="66.5" x="1557.4" y="117.5889">(Console)</text></g><!--entity ClientApi--><g class="entity" data-qualified-name="Clients.ClientApi" data-source-line="10" id="ent0004"><rect fill="#F1F1F1" height="52.5938" rx="2.5" ry="2.5" style="stroke:#181818;stroke-width:0.5;" width="87.334" x="1425.33" y="78.2969"/><text fill="#000000" font-family="sans-serif" font-size="14" lengthAdjust="spacing" textLength="67.334" x="1435.33" y="101.292">Client.Api</text><text fill="#000000" font-family="sans-serif" font-size="14" lengthAdjust="spacing" textLength="66.5" x="1435.33" y="117.5889">(Console)</text></g><!--entity Api--><g class="entity" data-qualified-name="Backend.Api" data-source-line="14" id="ent0006"><rect fill="#F1F1F1" height="52.5938" rx="2.5" ry="2.5" style="stroke:#181818;stroke-width:0.5;" width="208.665" x="629.67" y="230.8869"/><text fill="#000000" font-family="sans-serif" font-size="14" lengthAdjust="spacing" textLength="22.1484" x="639.67" y="253.882">API</text><text fill="#000000" font-family="sans-serif" font-size="14" lengthAdjust="spacing" textLength="4.4502" x="661.8184" y="253.882">&#160;</text><text fill="#000000" font-family="sans-serif" font-size="14" lengthAdjust="spacing" textLength="61.8447" x="666.2686" y="253.882">Gateway</text><text fill="#000000" font-family="sans-serif" font-size="14" lengthAdjust="spacing" textLength="81.9287" x="639.67" y="270.1789">(Controllers</text><text fill="#000000" font-family="sans-serif" font-size="14" lengthAdjust="spacing" textLength="4.4502" x="721.5987" y="270.1789">&#160;</text><text fill="#000000" font-family="sans-serif" font-size="14" lengthAdjust="spacing" textLength="11.7305" x="726.0489" y="270.1789">+</text><text fill="#000000" font-family="sans-serif" font-size="14" lengthAdjust="spacing" textLength="4.4502" x="737.7794" y="270.1789">&#160;</text><text fill="#000000" font-family="sans-serif" font-size="14" lengthAdjust="spacing" textLength="86.1055" x="742.2296" y="270.1789">Middleware)</text></g><!--entity DB--><g class="entity" data-qualified-name="Backend.DB" data-source-line="31" id="ent0016"><path d="M902.07,697.9369 C902.07,687.9369 972.0041,687.9369 972.0041,687.9369 C972.0041,687.9369 1041.9382,687.9369 1041.9382,697.9369 L1041.9382,739.5306 C1041.9382,749.5306 972.0041,749.5306 972.0041,749.5306 C972.0041,749.5306 902.07,749.5306 902.07,739.5306 L902.07,697.9369" fill="#F1F1F1" style="stroke:#181818;stroke-width:0.5;"/><path d="M902.07,697.9369 C902.07,707.9369 972.0041,707.9369 972.0041,707.9369 C972.0041,707.9369 1041.9382,707.9369 1041.9382,697.9369" fill="none" style="stroke:#181818;stroke-width:0.5;"/><text fill="#000000" font-family="sans-serif" font-size="14" lengthAdjust="spacing" textLength="20.3848" x="912.07" y="724.932">DB</text><text fill="#000000" font-family="sans-serif" font-size="14" lengthAdjust="spacing" textLength="119.8682" x="912.07" y="741.2289">(Oracle/SQL/etc.)</text></g><!--entity LogStore--><g class="entity" data-qualified-name="Backend.LogStore" data-source-line="32" id="ent0017"><rect fill="#F1F1F1" height="52.5938" rx="2.5" ry="2.5" style="stroke:#181818;stroke-width:0.5;" width="116.1748" x="327.91" y="692.4369"/><text fill="#000000" font-family="sans-serif" font-size="14" lengthAdjust="spacing" textLength="54.4141" x="337.91" y="715.432">File/Log</text><text fill="#000000" font-family="sans-serif" font-size="14" lengthAdjust="spacing" textLength="4.4502" x="392.3241" y="715.432">&#160;</text><text fill="#000000" font-family="sans-serif" font-size="14" lengthAdjust="spacing" textLength="37.3105" x="396.7743" y="715.432">Store</text><text fill="#000000" font-family="sans-serif" font-size="14" lengthAdjust="spacing" textLength="67.6621" x="337.91" y="731.7289">(optional)</text></g><!--entity Svc--><g class="entity" data-qualified-name="Backend.Services.Svc" data-source-line="17" id="ent0008"><rect fill="#F1F1F1" height="52.5938" rx="2.5" ry="2.5" style="stroke:#181818;stroke-width:0.5;" width="208.125" x="629.94" y="381.4769"/><text fill="#000000" font-family="sans-serif" font-size="14" lengthAdjust="spacing" textLength="151.1289" x="639.94" y="404.472">LeaveRequestService</text><text fill="#000000" font-family="sans-serif" font-size="14" lengthAdjust="spacing" textLength="55.125" x="639.94" y="420.7689">(Submit</text><text fill="#000000" font-family="sans-serif" font-size="14" lengthAdjust="spacing" textLength="4.4502" x="695.065" y="420.7689">&#160;</text><text fill="#000000" font-family="sans-serif" font-size="14" lengthAdjust="spacing" textLength="11.7305" x="699.5152" y="420.7689">+</text><text fill="#000000" font-family="sans-serif" font-size="14" lengthAdjust="spacing" textLength="4.4502" x="711.2457" y="420.7689">&#160;</text><text fill="#000000" font-family="sans-serif" font-size="14" lengthAdjust="spacing" textLength="32.4502" x="715.6959" y="420.7689">Print</text><text fill="#000000" font-family="sans-serif" font-size="14" lengthAdjust="spacing" textLength="4.4502" x="748.1461" y="420.7689">&#160;</text><text fill="#000000" font-family="sans-serif" font-size="14" lengthAdjust="spacing" textLength="75.4688" x="752.5963" y="420.7689">workflows)</text></g><!--entity Repo--><g class="entity" data-qualified-name="Backend.Infrastructure.Repo" data-source-line="21" id="ent0010"><rect fill="#F1F1F1" height="68.8906" rx="2.5" ry="2.5" style="stroke:#181818;stroke-width:0.5;" width="194.46" x="874.77" y="556.0469"/><text fill="#000000" font-family="sans-serif" font-size="14" lengthAdjust="spacing" textLength="174.46" x="884.77" y="579.042">LeaveRequestRepository</text><text fill="#000000" font-family="sans-serif" font-size="14" lengthAdjust="spacing" textLength="25.8467" x="884.77" y="595.3389">(DB</text><text fill="#000000" font-family="sans-serif" font-size="14" lengthAdjust="spacing" textLength="4.4502" x="910.6167" y="595.3389">&#160;</text><text fill="#000000" font-family="sans-serif" font-size="14" lengthAdjust="spacing" textLength="47.1748" x="915.0669" y="595.3389">access</text><text fill="#000000" font-family="sans-serif" font-size="14" lengthAdjust="spacing" textLength="4.4502" x="962.2417" y="595.3389">&#160;</text><text fill="#000000" font-family="sans-serif" font-size="14" lengthAdjust="spacing" textLength="4.7168" x="966.6919" y="595.3389">/</text><text fill="#000000" font-family="sans-serif" font-size="14" lengthAdjust="spacing" textLength="4.4502" x="971.4087" y="595.3389">&#160;</text><text fill="#000000" font-family="sans-serif" font-size="14" lengthAdjust="spacing" textLength="82.1543" x="975.8589" y="595.3389">Stored-proc</text><text fill="#000000" font-family="sans-serif" font-size="14" lengthAdjust="spacing" textLength="63.3896" x="884.77" y="611.6357">wrapper)</text></g><!--entity Pdf--><g class="entity" data-qualified-name="Backend.Infrastructure.Pdf" data-source-line="22" id="ent0011"><rect fill="#F1F1F1" height="52.5938" rx="2.5" ry="2.5" style="stroke:#181818;stroke-width:0.5;" width="211.748" x="628.13" y="564.1869"/><text fill="#000000" font-family="sans-serif" font-size="14" lengthAdjust="spacing" textLength="93.3516" x="638.13" y="587.182">PdfGenerator</text><text fill="#000000" font-family="sans-serif" font-size="14" lengthAdjust="spacing" textLength="32.7373" x="638.13" y="603.4789">(PDF</text><text fill="#000000" font-family="sans-serif" font-size="14" lengthAdjust="spacing" textLength="4.4502" x="670.8673" y="603.4789">&#160;</text><text fill="#000000" font-family="sans-serif" font-size="14" lengthAdjust="spacing" textLength="154.5605" x="675.3175" y="603.4789">rendering/templating)</text></g><!--entity Corr--><g class="entity" data-qualified-name="Backend.Observability.Corr" data-source-line="26" id="ent0013"><rect fill="#F1F1F1" height="52.5938" rx="2.5" ry="2.5" style="stroke:#181818;stroke-width:0.5;" width="157.293" x="46.35" y="564.1869"/><text fill="#000000" font-family="sans-serif" font-size="14" lengthAdjust="spacing" textLength="77.752" x="56.35" y="587.182">Correlation</text><text fill="#000000" font-family="sans-serif" font-size="14" lengthAdjust="spacing" textLength="4.4502" x="134.102" y="587.182">&#160;</text><text fill="#000000" font-family="sans-serif" font-size="14" lengthAdjust="spacing" textLength="55.0908" x="138.5521" y="587.182">Context</text><text fill="#000000" font-family="sans-serif" font-size="14" lengthAdjust="spacing" textLength="101.6914" x="56.35" y="603.4789">(CorrelationId)</text></g><!--entity Log--><g class="entity" data-qualified-name="Backend.Observability.Log" data-source-line="27" id="ent0014"><rect fill="#F1F1F1" height="36.2969" rx="2.5" ry="2.5" style="stroke:#181818;stroke-width:0.5;" width="154.5586" x="238.72" y="572.3369"/><text fill="#000000" font-family="sans-serif" font-size="14" lengthAdjust="spacing" textLength="74.3203" x="248.72" y="595.332">Structured</text><text fill="#000000" font-family="sans-serif" font-size="14" lengthAdjust="spacing" textLength="4.4502" x="323.0403" y="595.332">&#160;</text><text fill="#000000" font-family="sans-serif" font-size="14" lengthAdjust="spacing" textLength="55.7881" x="327.4905" y="595.332">Logging</text></g><!--entity Audit--><g class="entity" data-qualified-name="Backend.Observability.Audit" data-source-line="28" id="ent0015"><rect fill="#F1F1F1" height="52.5938" rx="2.5" ry="2.5" style="stroke:#181818;stroke-width:0.5;" width="144.2773" x="427.86" y="564.1869"/><text fill="#000000" font-family="sans-serif" font-size="14" lengthAdjust="spacing" textLength="36.7158" x="437.86" y="587.182">Audit</text><text fill="#000000" font-family="sans-serif" font-size="14" lengthAdjust="spacing" textLength="4.4502" x="474.5758" y="587.182">&#160;</text><text fill="#000000" font-family="sans-serif" font-size="14" lengthAdjust="spacing" textLength="48.5078" x="479.026" y="587.182">Logger</text><text fill="#000000" font-family="sans-serif" font-size="14" lengthAdjust="spacing" textLength="67.1973" x="437.86" y="603.4789">(Business</text><text fill="#000000" font-family="sans-serif" font-size="14" lengthAdjust="spacing" textLength="4.4502" x="505.0573" y="603.4789">&#160;</text><text fill="#000000" font-family="sans-serif" font-size="14" lengthAdjust="spacing" textLength="52.6299" x="509.5075" y="603.4789">events)</text></g><g class="entity" data-qualified-name="GMN32" data-source-line="56" id="ent0033"><path d="M1124.73,372.5069 L1124.73,403.7769 L838.38,407.7769 L1124.73,411.7769 L1124.73,443.0381 A0,0 0 0 0 1124.73,443.0381 L1361.2647,443.0381 A0,0 0 0 0 1361.2647,443.0381 L1361.2647,382.5069 L1351.2647,372.5069 L1124.73,372.5069 A0,0 0 0 0 1124.73,372.5069" fill="#FEFFDD" style="stroke:#181818;stroke-width:0.5;"/><path d="M1351.2647,372.5069 L1351.2647,382.5069 L1361.2647,382.5069 L1351.2647,372.5069" fill="#FEFFDD" style="stroke:#181818;stroke-width:0.5;"/><text fill="#000000" font-family="sans-serif" font-size="13" lengthAdjust="spacing" textLength="54.8184" x="1130.73" y="389.5738">Services</text><text fill="#000000" font-family="sans-serif" font-size="13" lengthAdjust="spacing" textLength="4.1323" x="1185.5484" y="389.5738">&#160;</text><text fill="#000000" font-family="sans-serif" font-size="13" lengthAdjust="spacing" textLength="49.2578" x="1189.6807" y="389.5738">enforce</text><text fill="#000000" font-family="sans-serif" font-size="13" lengthAdjust="spacing" textLength="4.1323" x="1238.9385" y="389.5738">&#160;</text><text fill="#000000" font-family="sans-serif" font-size="13" lengthAdjust="spacing" textLength="56.6592" x="1243.0708" y="389.5738">business</text><text fill="#000000" font-family="sans-serif" font-size="13" lengthAdjust="spacing" textLength="4.1323" x="1299.73" y="389.5738">&#160;</text><text fill="#000000" font-family="sans-serif" font-size="13" lengthAdjust="spacing" textLength="42.4023" x="1303.8623" y="389.5738">policy,</text><text fill="#000000" font-family="sans-serif" font-size="13" lengthAdjust="spacing" textLength="28.8945" x="1130.73" y="404.7066">e.g.:</text><text fill="#000000" font-family="sans-serif" font-size="13" lengthAdjust="spacing" textLength="31.3066" x="1130.73" y="419.8394">"PDF</text><text fill="#000000" font-family="sans-serif" font-size="13" lengthAdjust="spacing" textLength="4.1323" x="1162.0366" y="419.8394">&#160;</text><text fill="#000000" font-family="sans-serif" font-size="13" lengthAdjust="spacing" textLength="60.5249" x="1166.169" y="419.8394">language</text><text fill="#000000" font-family="sans-serif" font-size="13" lengthAdjust="spacing" textLength="4.1323" x="1226.6939" y="419.8394">&#160;</text><text fill="#000000" font-family="sans-serif" font-size="13" lengthAdjust="spacing" textLength="32.7729" x="1230.8262" y="419.8394">must</text><text fill="#000000" font-family="sans-serif" font-size="13" lengthAdjust="spacing" textLength="4.1323" x="1263.5991" y="419.8394">&#160;</text><text fill="#000000" font-family="sans-serif" font-size="13" lengthAdjust="spacing" textLength="41.1138" x="1267.7315" y="419.8394">match</text><text fill="#000000" font-family="sans-serif" font-size="13" lengthAdjust="spacing" textLength="92.2886" x="1130.73" y="434.9722">LeaveRequest</text><text fill="#000000" font-family="sans-serif" font-size="13" lengthAdjust="spacing" textLength="4.1323" x="1223.0186" y="434.9722">&#160;</text><text fill="#000000" font-family="sans-serif" font-size="13" lengthAdjust="spacing" textLength="66.5044" x="1227.1509" y="434.9722">language"</text></g><g class="entity" data-qualified-name="GMN35" data-source-line="61" id="ent0036"><path d="M1396.33,372.5069 L1396.33,443.0381 L1547.6728,443.0381 L1547.6728,382.5069 L1537.6728,372.5069 L1396.33,372.5069" fill="#FEFFDD" style="stroke:#181818;stroke-width:0.5;"/><path d="M1537.6728,372.5069 L1537.6728,382.5069 L1547.6728,382.5069 L1537.6728,372.5069" fill="#FEFFDD" style="stroke:#181818;stroke-width:1;"/><text fill="#000000" font-family="sans-serif" font-size="13" lengthAdjust="spacing" textLength="20.5664" x="1402.33" y="389.5738">API</text><text fill="#000000" font-family="sans-serif" font-size="13" lengthAdjust="spacing" textLength="4.1323" x="1422.8964" y="389.5738">&#160;</text><text fill="#000000" font-family="sans-serif" font-size="13" lengthAdjust="spacing" textLength="57.4272" x="1427.0287" y="389.5738">Gateway</text><text fill="#000000" font-family="sans-serif" font-size="13" lengthAdjust="spacing" textLength="4.1323" x="1484.456" y="389.5738">&#160;</text><text fill="#000000" font-family="sans-serif" font-size="13" lengthAdjust="spacing" textLength="10.3848" x="1488.5883" y="389.5738">is</text><text fill="#000000" font-family="sans-serif" font-size="13" lengthAdjust="spacing" textLength="4.1323" x="1498.9731" y="389.5738">&#160;</text><text fill="#000000" font-family="sans-serif" font-size="13" lengthAdjust="spacing" textLength="29.5674" x="1503.1054" y="389.5738">thin:</text><text fill="#000000" font-family="sans-serif" font-size="13" lengthAdjust="spacing" textLength="4.6909" x="1402.33" y="404.7066">-</text><text fill="#000000" font-family="sans-serif" font-size="13" lengthAdjust="spacing" textLength="4.1323" x="1407.0209" y="404.7066">&#160;</text><text fill="#000000" font-family="sans-serif" font-size="13" lengthAdjust="spacing" textLength="52.1968" x="1411.1532" y="404.7066">validate</text><text fill="#000000" font-family="sans-serif" font-size="13" lengthAdjust="spacing" textLength="4.1323" x="1463.35" y="404.7066">&#160;</text><text fill="#000000" font-family="sans-serif" font-size="13" lengthAdjust="spacing" textLength="28.1836" x="1467.4823" y="404.7066">DTO</text><text fill="#000000" font-family="sans-serif" font-size="13" lengthAdjust="spacing" textLength="4.6909" x="1402.33" y="419.8394">-</text><text fill="#000000" font-family="sans-serif" font-size="13" lengthAdjust="spacing" textLength="4.1323" x="1407.0209" y="419.8394">&#160;</text><text fill="#000000" font-family="sans-serif" font-size="13" lengthAdjust="spacing" textLength="19.8682" x="1411.1532" y="419.8394">set</text><text fill="#000000" font-family="sans-serif" font-size="13" lengthAdjust="spacing" textLength="4.1323" x="1431.0214" y="419.8394">&#160;</text><text fill="#000000" font-family="sans-serif" font-size="13" lengthAdjust="spacing" textLength="70.2686" x="1435.1537" y="419.8394">correlation</text><text fill="#000000" font-family="sans-serif" font-size="13" lengthAdjust="spacing" textLength="4.1323" x="1505.4223" y="419.8394">&#160;</text><text fill="#000000" font-family="sans-serif" font-size="13" lengthAdjust="spacing" textLength="11.8638" x="1509.5546" y="419.8394">id</text><text fill="#000000" font-family="sans-serif" font-size="13" lengthAdjust="spacing" textLength="4.6909" x="1402.33" y="434.9722">-</text><text fill="#000000" font-family="sans-serif" font-size="13" lengthAdjust="spacing" textLength="4.1323" x="1407.0209" y="434.9722">&#160;</text><text fill="#000000" font-family="sans-serif" font-size="13" lengthAdjust="spacing" textLength="22.3374" x="1411.1532" y="434.9722">call</text><text fill="#000000" font-family="sans-serif" font-size="13" lengthAdjust="spacing" textLength="4.1323" x="1433.4906" y="434.9722">&#160;</text><text fill="#000000" font-family="sans-serif" font-size="13" lengthAdjust="spacing" textLength="54.8184" x="1437.623" y="434.9722">Services</text></g><!--link ClientDirect to Repo--><g class="link" data-entity-1="ent0003" data-entity-2="ent0010" data-link-type="dependency" data-source-line="36" id="lnk18"><path d="M1619.53,131.1869 C1645.55,168.8869 1691.68,242.5569 1709,313.4769 C1728.59,393.6969 1736.73,425.0469 1627,505.0469 C1540.26,568.2769 1235.9782,584.038 1075.5782,588.018" fill="none" id="ClientDirect-to-Repo" style="stroke:#181818;stroke-width:1;"/><polygon fill="#181818" points="1069.58,588.1669,1078.6765,591.9424,1074.5785,588.0428,1078.478,583.9449,1069.58,588.1669" style="stroke:#181818;stroke-width:1;"/><text fill="#000000" font-family="sans-serif" font-size="13" lengthAdjust="spacing" textLength="37.4512" x="1713" y="326.5438">direct</text><text fill="#000000" font-family="sans-serif" font-size="13" lengthAdjust="spacing" textLength="4.1323" x="1750.4512" y="326.5438">&#160;</text><text fill="#000000" font-family="sans-serif" font-size="13" lengthAdjust="spacing" textLength="29.2817" x="1754.5835" y="326.5438">data</text><text fill="#000000" font-family="sans-serif" font-size="13" lengthAdjust="spacing" textLength="4.1323" x="1783.8652" y="326.5438">&#160;</text><text fill="#000000" font-family="sans-serif" font-size="13" lengthAdjust="spacing" textLength="29.1104" x="1787.9976" y="326.5438">calls</text></g><!--link ClientDirect to Pdf--><g class="link" data-entity-1="ent0003" data-entity-2="ent0011" data-link-type="dependency" data-source-line="37" id="lnk19"><path d="M1600.24,131.2269 C1597.69,208.4969 1588.29,435.2569 1565,458.0769 C1472.94,548.2469 1115.54,495.8669 987,505.0469 C958.13,507.1069 884.57,504.2469 857,513.0469 C823.11,523.8569 793.9012,542.4685 770.2712,560.1785" fill="none" id="ClientDirect-to-Pdf" style="stroke:#181818;stroke-width:1;"/><polygon fill="#181818" points="765.47,563.7769,775.0707,561.5801,769.471,560.7782,770.2729,555.1785,765.47,563.7769" style="stroke:#181818;stroke-width:1;"/><text fill="#000000" font-family="sans-serif" font-size="13" lengthAdjust="spacing" textLength="37.4512" x="1591" y="326.5438">direct</text><text fill="#000000" font-family="sans-serif" font-size="13" lengthAdjust="spacing" textLength="4.1323" x="1628.4512" y="326.5438">&#160;</text><text fill="#000000" font-family="sans-serif" font-size="13" lengthAdjust="spacing" textLength="30.5449" x="1632.5835" y="326.5438">print</text><text fill="#000000" font-family="sans-serif" font-size="13" lengthAdjust="spacing" textLength="4.1323" x="1663.1284" y="326.5438">&#160;</text><text fill="#000000" font-family="sans-serif" font-size="13" lengthAdjust="spacing" textLength="29.1104" x="1667.2607" y="326.5438">calls</text></g><!--link Repo to DB--><g class="link" data-entity-1="ent0010" data-entity-2="ent0016" data-link-type="dependency" data-source-line="38" id="lnk20"><path d="M960.56,625.3169 C958.69,644.7469 958.1431,662.9652 960.2731,681.7252" fill="none" id="Repo-to-DB" style="stroke:#181818;stroke-width:1;"/><polygon fill="#181818" points="960.95,687.6869,963.9091,678.2931,960.3859,682.7188,955.9602,679.1956,960.95,687.6869" style="stroke:#181818;stroke-width:1;"/></g><!--link Repo to DB--><g class="link" data-entity-1="ent0010" data-entity-2="ent0016" data-link-type="dependency" data-source-line="45" id="lnk25"><path d="M984.11,625.3169 C986.09,644.7469 986.6645,662.9696 984.4145,681.7296" fill="none" id="Repo-to-DB-1" style="stroke:#181818;stroke-width:1;"/><polygon fill="#181818" points="983.7,687.6869,988.7433,679.2272,984.2954,682.7225,980.8002,678.2746,983.7,687.6869" style="stroke:#181818;stroke-width:1;"/></g><!--link ClientApi to Api--><g class="link" data-entity-1="ent0004" data-entity-2="ent0006" data-link-type="dependency" data-source-line="41" id="lnk21"><path d="M1424.95,114.6169 C1310.59,138.0469 1007.688,200.1128 844.388,233.5628" fill="none" id="ClientApi-to-Api" style="stroke:#181818;stroke-width:1;"/><polygon fill="#181818" points="838.51,234.7669,848.1296,236.8795,843.4083,233.7635,846.5242,229.0422,838.51,234.7669" style="stroke:#181818;stroke-width:1;"/><text fill="#000000" font-family="sans-serif" font-size="13" lengthAdjust="spacing" textLength="72.0776" x="1189" y="175.9538">HTTP/gRPC</text></g><!--link Api to Svc--><g class="link" data-entity-1="ent0006" data-entity-2="ent0008" data-link-type="dependency" data-source-line="42" id="lnk22"><path d="M734,283.7269 C734,310.9469 734,347.7869 734,375.0669" fill="none" id="Api-to-Svc" style="stroke:#181818;stroke-width:1;"/><polygon fill="#181818" points="734,381.0669,738,372.0669,734,376.0669,730,372.0669,734,381.0669" style="stroke:#181818;stroke-width:1;"/><text fill="#000000" font-family="sans-serif" font-size="13" lengthAdjust="spacing" textLength="22.3374" x="735" y="326.5438">call</text><text fill="#000000" font-family="sans-serif" font-size="13" lengthAdjust="spacing" textLength="4.1323" x="757.3374" y="326.5438">&#160;</text><text fill="#000000" font-family="sans-serif" font-size="13" lengthAdjust="spacing" textLength="64.3589" x="761.4697" y="326.5438">use-cases</text></g><!--link Svc to Repo--><g class="link" data-entity-1="ent0008" data-entity-2="ent0010" data-link-type="dependency" data-source-line="43" id="lnk23"><path d="M775.23,434.3469 C793.01,445.7369 813.85,459.6069 832,473.0469 C867.58,499.3669 901.5745,527.7989 929.1945,551.7189" fill="none" id="Svc-to-Repo" style="stroke:#181818;stroke-width:1;"/><polygon fill="#181818" points="933.73,555.6469,929.5453,546.7312,929.9504,552.3736,924.308,552.7786,933.73,555.6469" style="stroke:#181818;stroke-width:1;"/><text fill="#000000" font-family="sans-serif" font-size="13" lengthAdjust="spacing" textLength="66.625" x="872" y="486.1138">read/write</text><text fill="#000000" font-family="sans-serif" font-size="13" lengthAdjust="spacing" textLength="4.1323" x="938.625" y="486.1138">&#160;</text><text fill="#000000" font-family="sans-serif" font-size="13" lengthAdjust="spacing" textLength="35.2676" x="942.7573" y="486.1138">leave</text><text fill="#000000" font-family="sans-serif" font-size="13" lengthAdjust="spacing" textLength="56.4751" x="896.7749" y="501.2466">requests</text></g><!--link Svc to Pdf--><g class="link" data-entity-1="ent0008" data-entity-2="ent0011" data-link-type="dependency" data-source-line="44" id="lnk24"><path d="M734,434.2869 C734,468.6269 734,523.3869 734,557.8169" fill="none" id="Svc-to-Pdf" style="stroke:#181818;stroke-width:1;"/><polygon fill="#181818" points="734,563.8169,738,554.8169,734,558.8169,730,554.8169,734,563.8169" style="stroke:#181818;stroke-width:1;"/><text fill="#000000" font-family="sans-serif" font-size="13" lengthAdjust="spacing" textLength="58.8936" x="735" y="493.6138">generate</text><text fill="#000000" font-family="sans-serif" font-size="13" lengthAdjust="spacing" textLength="4.1323" x="793.8936" y="493.6138">&#160;</text><text fill="#000000" font-family="sans-serif" font-size="13" lengthAdjust="spacing" textLength="25.3271" x="798.0259" y="493.6138">PDF</text></g><!--link Api to Corr--><g class="link" data-entity-1="ent0006" data-entity-2="ent0013" data-link-type="dependency" data-source-line="48" id="lnk26"><path d="M629.35,267.3969 C515.58,279.0669 342.67,302.1469 288,338.4769 C203.18,394.8469 154.7548,506.4033 135.7548,558.2433" fill="none" id="Api-to-Corr" style="stroke:#181818;stroke-width:1;"/><polygon fill="#181818" points="133.69,563.8769,140.5428,556.8031,135.4106,559.1823,133.0314,554.0501,133.69,563.8769" style="stroke:#181818;stroke-width:1;"/><text fill="#000000" font-family="sans-serif" font-size="13" lengthAdjust="spacing" textLength="113.0137" x="289" y="404.8438">create/propagate</text><text fill="#000000" font-family="sans-serif" font-size="13" lengthAdjust="spacing" textLength="84.2842" x="303.3647" y="419.9766">CorrelationId</text></g><!--link Api to Log--><g class="link" data-entity-1="ent0006" data-entity-2="ent0014" data-link-type="dependency" data-source-line="49" id="lnk27"><path d="M642.8,283.9469 C606.33,296.8369 565.19,314.8269 532,338.4769 C435.8,407.0569 358.057,522.1996 329.867,566.9696" fill="none" id="Api-to-Log" style="stroke:#181818;stroke-width:1;"/><polygon fill="#181818" points="326.67,572.0469,334.8504,566.5622,329.3342,567.8158,328.0806,562.2996,326.67,572.0469" style="stroke:#181818;stroke-width:1;"/><text fill="#000000" font-family="sans-serif" font-size="13" lengthAdjust="spacing" textLength="49.7021" x="533" y="412.3438">request</text><text fill="#000000" font-family="sans-serif" font-size="13" lengthAdjust="spacing" textLength="4.1323" x="582.7021" y="412.3438">&#160;</text><text fill="#000000" font-family="sans-serif" font-size="13" lengthAdjust="spacing" textLength="26.5903" x="586.8345" y="412.3438">logs</text></g><!--link Svc to Log--><g class="link" data-entity-1="ent0008" data-entity-2="ent0014" data-link-type="dependency" data-source-line="50" id="lnk28"><path d="M686,434.4869 C667.69,443.2769 646.33,452.3269 626,458.0769 C573.86,472.8269 557.36,459.0669 505,473.0469 C460.74,484.8569 449.28,489.4669 410,513.0469 C381.51,530.1469 356.7907,551.1892 338.6607,567.9092" fill="none" id="Svc-to-Log" style="stroke:#181818;stroke-width:1;"/><polygon fill="#181818" points="334.25,571.9769,343.5778,568.8158,337.9256,568.5872,338.1543,562.9349,334.25,571.9769" style="stroke:#181818;stroke-width:1;"/><text fill="#000000" font-family="sans-serif" font-size="13" lengthAdjust="spacing" textLength="28.1201" x="506" y="493.6138">step</text><text fill="#000000" font-family="sans-serif" font-size="13" lengthAdjust="spacing" textLength="4.1323" x="534.1201" y="493.6138">&#160;</text><text fill="#000000" font-family="sans-serif" font-size="13" lengthAdjust="spacing" textLength="26.5903" x="538.2524" y="493.6138">logs</text></g><!--link Svc to Audit--><g class="link" data-entity-1="ent0008" data-entity-2="ent0015" data-link-type="dependency" data-source-line="51" id="lnk29"><path d="M673.12,434.4769 C651.57,444.9269 627.78,458.0869 608,473.0469 C572.81,499.6469 543.1439,533.7824 523.0539,559.1624" fill="none" id="Svc-to-Audit" style="stroke:#181818;stroke-width:1;"/><polygon fill="#181818" points="519.33,563.8669,528.0522,559.2927,522.4333,559.9465,521.7796,554.3275,519.33,563.8669" style="stroke:#181818;stroke-width:1;"/><text fill="#000000" font-family="sans-serif" font-size="13" lengthAdjust="spacing" textLength="33.1665" x="609" y="486.1138">audit</text><text fill="#000000" font-family="sans-serif" font-size="13" lengthAdjust="spacing" textLength="4.1323" x="642.1665" y="486.1138">&#160;</text><text fill="#000000" font-family="sans-serif" font-size="13" lengthAdjust="spacing" textLength="79.5615" x="646.2988" y="486.1138">submit/print</text><text fill="#000000" font-family="sans-serif" font-size="13" lengthAdjust="spacing" textLength="43.7988" x="645.5308" y="501.2466">events</text></g><!--link Log to LogStore--><g class="link" data-entity-1="ent0014" data-entity-2="ent0017" data-link-type="dependency" data-source-line="52" id="lnk30"><path d="M325.73,609.0369 C337.68,630.5869 355.1199,662.0498 368.8299,686.7698" fill="none" id="Log-to-LogStore" style="stroke:#181818;stroke-width:1;"/><polygon fill="#181818" points="371.74,692.0169,370.8729,682.2063,369.3149,687.6443,363.8769,686.0864,371.74,692.0169" style="stroke:#181818;stroke-width:1;"/></g><!--link Audit to LogStore--><g class="link" data-entity-1="ent0015" data-entity-2="ent0017" data-link-type="dependency" data-source-line="53" id="lnk31"><path d="M476.93,617.0369 C457.15,638.9369 432.8204,665.8731 413.0604,687.7631" fill="none" id="Audit-to-LogStore" style="stroke:#181818;stroke-width:1;"/><polygon fill="#181818" points="409.04,692.2169,418.0398,688.2165,412.3903,688.5054,412.1014,682.8559,409.04,692.2169" style="stroke:#181818;stroke-width:1;"/></g><!--link Api to GMN35--><g class="link" data-entity-1="ent0006" data-entity-2="ent0036" data-link-type="association" data-source-line="61" id="lnk37"><path d="M838.67,264.7769 C995.48,275.7469 1283.19,300.3669 1379,338.4769 C1398.92,346.4069 1418.43,359.6369 1434.4,372.3569" fill="none" id="Api-GMN35" style="stroke:#181818;stroke-width:1;stroke-dasharray:7,7;"/></g><?plantuml-src RLHDRzim3BtxLn2vB46NUEknXm7vMBi2BPhL1NROTb1inX4gIvuanys6_lUHafqwQ4wsoSV7P_99Ndg5S8TYZoki34mXarLDeON8dr4NS2SEQB60kSrtqcFk6uimdgzluG8oj7kPewFNMxsrmddRHC05F6mSPSL6AkaFaoHnprBNmeeASbFLHgFscJzG8qkSGfSA1n2t4uLffIvXAvGRPbehwX-oy3kulFmqY5VYvHwT4oLcyY_2PqecDVq21M2qL9BQkH7yIm1-ng_PIdBdNtgyDDePXPFV81p4PCmDmFDQdaTI8daTjEh6rhNYCTq8Zwqun79lZL9eUMBtiYWKPMp7nqnKSsJgXnkfY2miwH7_DEXyboJIhDbKqXFVsahjeJNsUQjCwo9fji-f-FM4-7HLP-aViJPEUcDPzce18YSX3bB8A8R5jBOc3wkeqSP6N15vriNs1ZLQGL2gNg-kQSMwG99NfXx9NCBJQomZy3jz9yuvobiQQv5BZGOU9Bx4tHsZjqMt5mh5agp_HtAnAKjg6W3q7lFpfg39SGfPwQ9nKlDlufxTqcs5CRt4GdYn4OuqhXPKy615hZ3Dlj-bwFFPPCG5gmKl_bfIWfZZm0XhQjOerAIN419idGymdKuXEWx6si3YwuI6GGwdU3Bq8mM-X4735HGnmeeW5qgvzqYQBRmXws2F20qS326nNV_-c8zRIPtFI21xXX9-Ni6tfwTrMZwkbqaV9wTHdFcXSJZDQKmkuU10j4LHfAsbQmGKkuq2mMvlm4vp6Gs4GEuvf_R48j1AzbRGsgjX4x0SwkWn9RlMecI-4xySqRoe82-e0MNADqLTpdciJnFHFLSWmjE5OvZ6AKS39LpQKSHjnvAJKA8DoRAot7ams-wy7kzLr5jZSuHDRytQA9aVFWBEojaL8KTyl1HTdmqVdQeXzPNm-Gw6f_a862LyetF7hk_6U6ygRiot3y3WlWBfmE-avYvJs0ib2nxWwkaX11oIcGP7KXOX7FRVopzs-my0?></g></svg>